<?xml version="1.0" encoding="UTF-8" standalone="no"?>
<svg
   xmlns:dc="http://purl.org/dc/elements/1.1/"
   xmlns:cc="http://creativecommons.org/ns#"
   xmlns:rdf="http://www.w3.org/1999/02/22-rdf-syntax-ns#"
   xmlns:svg="http://www.w3.org/2000/svg"
   xmlns="http://www.w3.org/2000/svg"
   xmlns:sodipodi="http://sodipodi.sourceforge.net/DTD/sodipodi-0.dtd"
   xmlns:inkscape="http://www.inkscape.org/namespaces/inkscape"
   version="1.1"
   id="svg2"
   width="200"
   height="200"
   viewBox="0 0 200 200"
   sodipodi:docname="Clayton.svg"
   inkscape:version="1.0.2 (e86c870879, 2021-01-15, custom)">
  <metadata
     id="metadata8">
    <rdf:RDF>
      <cc:Work
         rdf:about="">
        <dc:format>image/svg+xml</dc:format>
        <dc:type
           rdf:resource="http://purl.org/dc/dcmitype/StillImage" />
        <dc:title></dc:title>
      </cc:Work>
    </rdf:RDF>
  </metadata>
  <defs
     id="defs6" />
  <sodipodi:namedview
     pagecolor="#ffffff"
     bordercolor="#666666"
     borderopacity="1"
     objecttolerance="10"
     gridtolerance="10"
     guidetolerance="10"
     inkscape:pageopacity="0"
     inkscape:pageshadow="2"
     inkscape:window-width="1920"
     inkscape:window-height="1057"
     id="namedview4"
     showgrid="false"
     fit-margin-top="0"
     fit-margin-left="0"
     fit-margin-right="0"
     fit-margin-bottom="0"
     inkscape:zoom="2.795"
     inkscape:cx="91.980731"
     inkscape:cy="106.82145"
     inkscape:window-x="-8"
     inkscape:window-y="690"
     inkscape:window-maximized="1"
     inkscape:current-layer="layer1"
     inkscape:document-rotation="0" />
  <g
     inkscape:groupmode="layer"
     id="layer1"
     inkscape:label="Image 1"
     style="display:inline">
    <path
       style="fill:#dde5ed;fill-opacity:1;stroke:#dde5ed;stroke-width:1;stroke-linecap:round;stroke-linejoin:round;stroke-miterlimit:4;stroke-dasharray:none;stroke-opacity:1"
       d="m 59.396309,49.994946 c 10.694385,1.916723 24.159978,2.749719 38.696368,2.790161 l -0.02764,-17.459022"
       id="path855"
       sodipodi:nodetypes="ccc" />
    <path
       style="fill:#dde5ed;fill-opacity:1;stroke:#dde5ed;stroke-width:1;stroke-linecap:round;stroke-linejoin:round;stroke-miterlimit:4;stroke-dasharray:none;stroke-opacity:1"
       d="m 104.45458,35.326085 -0.0607,17.52298 c 15.87051,-0.06993 28.79986,-0.561456 39.47942,-2.037757"
       id="path857"
       sodipodi:nodetypes="ccc" />
    <path
       style="fill:#dde5ed;fill-opacity:1;stroke:#dde5ed;stroke-width:1;stroke-linecap:round;stroke-linejoin:round;stroke-miterlimit:4;stroke-dasharray:none;stroke-opacity:1"
       d="m 104.44477,59.150206 -0.051,14.365181 3.57831,3.527337 c 0,0 26.67607,0.300161 47.18602,16.947087 0,0 -3.68539,-24.969378 -8.66983,-37.264325 -13.79416,2.149411 -23.69404,2.173507 -42.04352,2.42472 z"
       id="path859"
       sodipodi:nodetypes="ccccccc" />
    <path
       style="fill:#dde5ed;fill-opacity:1;stroke:#dde5ed;stroke-width:1;stroke-linecap:round;stroke-linejoin:round;stroke-miterlimit:4;stroke-dasharray:none;stroke-opacity:1"
       d="m 98.335537,59.098727 c 0,0 -22.263832,0.332315 -41.869287,-2.990664 0,0 -5.34222,10.73541 -7.668294,35.657604 0,0 15.527912,-13.261203 46.923111,-14.9953 l -2.36998,-3.050622 4.98445,0.05098 z"
       id="path861"
       sodipodi:nodetypes="ccccccc" />
    <path
       style="fill:#dde5ed;fill-opacity:1;stroke:#dde5ed;stroke-width:1px;stroke-linecap:round;stroke-linejoin:round;stroke-opacity:1"
       d="m 98.065037,35.326085 c 0,0 -27.282257,-1.123312 -38.668728,14.668861"
       id="path1005"
       sodipodi:nodetypes="cc" />
    <path
       style="fill:#dde5ed;fill-opacity:1;stroke:#dde5ed;stroke-width:1px;stroke-linecap:round;stroke-linejoin:round;stroke-opacity:1"
       d="m 104.45458,35.326085 c 0,0 25.68904,-1.324219 39.41867,15.485223"
       id="path1007"
       sodipodi:nodetypes="cc" />
    <path
       style="fill:#d7ebc6;fill-opacity:1;stroke:#d7ebc6;stroke-width:1;stroke-linecap:round;stroke-linejoin:round;stroke-miterlimit:4;stroke-dasharray:none;stroke-opacity:1"
       d="m 59.396309,151.76039 c 10.694385,-1.91672 24.476218,-2.68647 39.012608,-2.72692 l -0.34388,17.39578"
       id="path1013"
       sodipodi:nodetypes="ccc" />
    <path
       style="fill:#d7ebc6;fill-opacity:1;stroke:#d7ebc6;stroke-width:1;stroke-linecap:round;stroke-linejoin:round;stroke-miterlimit:4;stroke-dasharray:none;stroke-opacity:1"
       d="m 104.89405,166.30523 0.0691,-17.33571 c 15.87051,0.0699 28.23063,0.49821 38.91019,1.97451"
       id="path1015"
       sodipodi:nodetypes="ccc" />
    <path
       style="fill:#d7ebc6;fill-opacity:1;stroke:#d7ebc6;stroke-width:1;stroke-linecap:round;stroke-linejoin:round;stroke-miterlimit:4;stroke-dasharray:none;stroke-opacity:1"
       d="m 104.95075,142.22564 0.0307,-10.35412 6.62568,-6.27818 c 0,0 26.10703,-2.45505 43.44574,-16.47079 0,0 -3.58015,23.61235 -8.56459,35.9073 -17.43046,-1.89397 -28.04102,-2.80788 -41.53753,-2.80421 z"
       id="path1017"
       sodipodi:nodetypes="cccccc" />
    <path
       style="fill:#d7ebc6;fill-opacity:1;stroke:#d7ebc6;stroke-width:1;stroke-linecap:round;stroke-linejoin:round;stroke-miterlimit:4;stroke-dasharray:none;stroke-opacity:1"
       d="m 98.272287,142.34037 c 0,0 -22.200582,-0.0161 -41.806037,3.3069 0,0 -5.34222,-10.73541 -7.668294,-35.6576 24.101254,9.71565 26.709172,13.62191 49.960081,15.31016 l -4.46467,6.97066 4.17133,-0.13722 z"
       id="path1019"
       sodipodi:nodetypes="ccccccc" />
    <path
       style="fill:#d7ebc6;fill-opacity:1;stroke:#d7ebc6;stroke-width:1px;stroke-linecap:round;stroke-linejoin:round;stroke-opacity:1"
       d="m 98.065037,166.42925 c 0,0 -27.282257,1.12332 -38.668728,-14.66886"
       id="path1027"
       sodipodi:nodetypes="cc" />
    <path
       style="fill:#d7ebc6;fill-opacity:1;stroke:#d7ebc6;stroke-width:1px;stroke-linecap:round;stroke-linejoin:round;stroke-opacity:1"
       d="m 104.89405,166.30524 c 0,0 25.20485,1.22462 38.9792,-15.36121"
       id="path1029"
       sodipodi:nodetypes="cc" />
  </g>
  <g
     inkscape:groupmode="layer"
     inkscape:label="Image"
     id="g10"
     transform="translate(-18.954923,-1.2937146)"
     style="display:inline">
    <path
       style="fill:#2774ae;fill-opacity:1;stroke:#2774ae;stroke-width:1;stroke-linecap:round;stroke-linejoin:round;stroke-miterlimit:4;stroke-dasharray:none;stroke-opacity:1"
       d="M 71.923954,50.157533 C 72.463376,50.240861 54.582673,47.156835 43.709692,43.668865 68.381403,10.538278 110.06027,4.8089232 110.06027,4.8089232 c 0,0 -20.206386,10.5992648 -38.136316,45.3486098 z"
       id="path837"
       sodipodi:nodetypes="cccc" />
    <path
       style="fill:#ffb549;fill-opacity:1;stroke:#ffb549;stroke-width:1;stroke-linecap:round;stroke-linejoin:round;stroke-miterlimit:4;stroke-dasharray:none;stroke-opacity:1"
       d="M 117.01996,36.6198 C 91.599951,38.706927 79.771393,52.207589 78.351232,51.288661 92.919293,20.74273 117.05333,5.0445528 117.05333,5.0445528 Z"
       id="path843"
       sodipodi:nodetypes="cccc" />
    <path
       style="fill:#702f8a;fill-opacity:1;stroke:#702f8a;stroke-width:1;stroke-linecap:round;stroke-linejoin:round;stroke-miterlimit:4;stroke-dasharray:none;stroke-opacity:1"
       d="m 123.4799,4.8229925 c 0,0 25.25015,17.2060415 39.34827,47.2820305"
       id="path847"
       sodipodi:nodetypes="cc" />
    <g
       id="g890"
       style="fill:#ee2737;fill-opacity:1;stroke:#ee2737;stroke-width:1;stroke-linecap:round;stroke-linejoin:round;stroke-miterlimit:4;stroke-dasharray:none;stroke-opacity:1">
      <path
         style="fill:#ee2737;fill-opacity:1;stroke:#ee2737;stroke-width:1;stroke-linecap:round;stroke-linejoin:round;stroke-miterlimit:4;stroke-dasharray:none;stroke-opacity:1"
         d="M 199.25895,45.078673 C 174.35227,9.1284653 131.53937,4.7636969 131.53937,4.7636969 c 0,0 29.25716,25.5932151 37.951,46.7403991"
         id="path849"
         sodipodi:nodetypes="ccc" />
    </g>
    <path
       style="fill:#ee2737;fill-opacity:1;stroke:#ee2737;stroke-width:1;stroke-linecap:round;stroke-linejoin:round;stroke-miterlimit:4;stroke-dasharray:none;stroke-opacity:1"
       d="m 169.49037,51.504096 c 12.49245,-1.688841 22.27547,-4.111665 29.76858,-6.425423"
       id="path851"
       sodipodi:nodetypes="cc" />
    <path
       style="fill:#cb333b;fill-opacity:1;stroke:#cb333b;stroke-width:1;stroke-linecap:round;stroke-linejoin:round;stroke-miterlimit:4;stroke-dasharray:none;stroke-opacity:1"
       d="m 202.11889,49.486064 c -7.44845,2.303823 -16.78994,4.927606 -30.13201,7.491792 0.60891,1.689977 1.21288,3.471868 1.98591,6.310715 l 35.15485,-1.527121 c 0,0 -2.46556,-6.793015 -7.00875,-12.275386 z"
       id="path853"
       sodipodi:nodetypes="ccccc" />
    <path
       style="fill:#2774ae;fill-opacity:1;stroke:#2774ae;stroke-width:1;stroke-linecap:round;stroke-linejoin:round;stroke-miterlimit:4;stroke-dasharray:none;stroke-opacity:1"
       d="m 112.30601,75.01346 11.66882,0.332315 2.95219,2.990661 20.27006,18.608568 c 0,0 13.76767,0.111424 27.3918,5.760456 0,0 -9.11553,6.53448 -26.39491,7.19907 l -24.2576,23.26071 -10.63347,0.33231 14.28873,-22.26382 c 0,0 -71.016948,-2.40538 -102.585052,-7.05752 0,0 54.734456,-8.228109 101.920462,-8.5604 L 115.29668,79.001012 Z"
       id="path863"
       sodipodi:nodetypes="ccccccccccccc" />
    <path
       style="fill:#41b6e6;fill-opacity:1;stroke:#41b6e6;stroke-width:1;stroke-linecap:round;stroke-linejoin:round;stroke-miterlimit:4;stroke-dasharray:none;stroke-opacity:1"
       d="m 70.276698,56.751112 c 0,0 -6.170634,15.95135 -7.832113,38.215172 l -37.848624,3.640187 c 0,0 2.895298,-31.86829 16.51943,-49.812265 8.18062,2.496068 19.833843,5.736485 29.161307,7.956906 z"
       id="path865"
       sodipodi:nodetypes="ccccc" />
    <path
       style="fill:#41b6e6;fill-opacity:1;stroke:#41b6e6;stroke-width:1;stroke-linecap:round;stroke-linejoin:round;stroke-miterlimit:4;stroke-dasharray:none;stroke-opacity:1"
       d="m 24.675267,109.17669 c 0,0 2.563002,26.64692 15.522541,45.25549 0,0 14.970359,-4.46339 30.350348,-6.34575 0,0 -7.027376,-15.58578 -7.421931,-35.52354 z"
       id="path867"
       sodipodi:nodetypes="ccccc" />
    <path
       style="fill:#cb333b;fill-opacity:1;stroke:#cb333b;stroke-width:1;stroke-linecap:round;stroke-linejoin:round;stroke-miterlimit:4;stroke-dasharray:none;stroke-opacity:1"
       d="m 172.11927,142.13723 36.88486,0.33227 c 0,0 -1.91448,6.34575 -6.97822,11.96265 0,0 -12.95954,-5.31671 -30.90352,-7.31048 z"
       id="path869"
       sodipodi:nodetypes="ccccc" />
    <path
       style="fill:#ee2737;fill-opacity:1;stroke:#ee2737;stroke-width:1;stroke-linecap:round;stroke-linejoin:round;stroke-miterlimit:4;stroke-dasharray:none;stroke-opacity:1"
       d="m 198.37065,159.74891 c 0,0 -23.44749,32.35722 -65.98136,39.33544 0,0 22.77176,-17.40786 37.07162,-46.31366"
       id="path871"
       sodipodi:nodetypes="ccc" />
    <path
       style="fill:#ee2737;fill-opacity:1;stroke:#ee2737;stroke-width:1;stroke-linecap:round;stroke-linejoin:round;stroke-miterlimit:4;stroke-dasharray:none;stroke-opacity:1"
       d="m 169.46091,152.77069 c 0,0 14.95331,1.66149 28.90974,6.97822"
       id="path873"
       sodipodi:nodetypes="cc" />
    <path
       style="fill:#2774ae;fill-opacity:1;stroke:#2774ae;stroke-width:1;stroke-linecap:round;stroke-linejoin:round;stroke-miterlimit:4;stroke-dasharray:none;stroke-opacity:1"
       d="m 107.84263,198.68978 c -44.195355,-8.63969 -64.464416,-39.32134 -64.464416,-39.32134 0,0 17.295442,-5.56973 29.258097,-6.23432 5.233502,12.03407 15.395056,28.60858 35.206319,45.55566 z"
       id="path881"
       sodipodi:nodetypes="cccc" />
    <path
       style="fill:#702f8a;fill-opacity:1;stroke:#702f8a;stroke-width:1;stroke-linecap:round;stroke-linejoin:round;stroke-miterlimit:4;stroke-dasharray:none;stroke-opacity:1"
       d="M 123.4799,4.8229925 123.4095,36.6198 c 0,0 19.46819,-0.174821 39.41872,15.485223"
       id="path883"
       sodipodi:nodetypes="ccc" />
    <path
       style="fill:#702f8a;fill-opacity:1;stroke:#702f8a;stroke-width:1;stroke-linecap:round;stroke-linejoin:round;stroke-miterlimit:4;stroke-dasharray:none;stroke-opacity:1"
       d="M 117.01996,167.72296 C 94.141356,166.47665 78.351233,153.0541 78.351233,153.0541 c 14.568061,30.54593 38.702097,46.24411 38.702097,46.24411 z"
       id="path1039"
       sodipodi:nodetypes="cccc" />
    <path
       style="fill:#ffb549;fill-opacity:1;stroke:#ffb549;stroke-width:1;stroke-linecap:round;stroke-linejoin:round;stroke-miterlimit:4;stroke-dasharray:none;stroke-opacity:1"
       d="m 123.82651,199.33228 c 0,0 24.90354,-17.01855 39.00166,-47.09454"
       id="path1041"
       sodipodi:nodetypes="cc" />
    <path
       style="fill:#ffb549;fill-opacity:1;stroke:#ffb549;stroke-width:1;stroke-linecap:round;stroke-linejoin:round;stroke-miterlimit:4;stroke-dasharray:none;stroke-opacity:1"
       d="m 123.82651,199.33228 0.0225,-31.73333 c 0,0 19.9141,-0.33364 39.10565,-15.36121"
       id="path1043"
       sodipodi:nodetypes="ccc" />
  </g>
</svg>
